<?xml version="1.0" encoding="iso-8859-1"?>
<!-- Generator: Adobe Illustrator 18.0.0, SVG Export Plug-In . SVG Version: 6.00 Build 0)  -->
<!DOCTYPE svg PUBLIC "-//W3C//DTD SVG 1.1//EN" "http://www.w3.org/Graphics/SVG/1.1/DTD/svg11.dtd">
<svg version="1.1" id="_x31_" xmlns="http://www.w3.org/2000/svg" xmlns:xlink="http://www.w3.org/1999/xlink" x="0px" y="0px"
	 viewBox="0 0 512 512" style="enable-background:new 0 0 512 512;" xml:space="preserve">
<g>
	<rect style="fill:#525252;" width="512" height="512"/>
	<path style="opacity:0.15;fill:#040000;" d="M512,281.908V512H284.518L169.216,396.698l-53.914-53.913
		C99.738,317.543,90.727,287.796,90.727,256c0-13.875,1.69-27.341,4.966-40.242L215.859,95.591
		c12.851-3.226,26.317-4.915,40.141-4.915c35.072,0,67.635,10.957,94.362,29.593L512,281.908z"/>
	<g>
		<g>
			<path style="fill:#EFEAA4;" d="M421.274,256c0,91.29-73.984,165.274-165.274,165.274c-31.795,0-61.542-9.011-86.784-24.576
				c-21.862-13.516-40.397-32.051-53.914-53.913C99.738,317.543,90.727,287.796,90.727,256c0-13.875,1.69-27.341,4.966-40.242
				c14.694-58.983,61.184-105.473,120.167-120.167c12.851-3.226,26.317-4.915,40.141-4.915c35.072,0,67.635,10.957,94.362,29.593
				c16.128,11.213,30.106,25.242,41.37,41.37C410.368,188.365,421.274,220.929,421.274,256z"/>
		</g>
		<g>
			<path style="fill:#C3B49A;" d="M273.408,110.849v20.684l-16.077-20.684h-7.066v33.791h7.885v-20.736l16.077,20.736h7.066v-33.791
				H273.408z"/>
		</g>
		<g>
			<path style="fill:#C3B49A;" d="M279.296,384.819c-0.461-1.177-1.28-2.151-2.355-2.969c-0.87-0.717-1.894-1.28-3.072-1.69
				c-1.177-0.409-2.713-0.716-4.556-0.921l-4.762-0.614c-0.819-0.102-1.536-0.256-2.151-0.461c-0.563-0.205-1.075-0.512-1.485-0.819
				c-0.41-0.307-0.666-0.717-0.87-1.127c-0.154-0.358-0.256-0.819-0.256-1.229c0-1.177,0.512-2.15,1.485-2.969
				c1.024-0.819,2.56-1.229,4.659-1.229c1.28,0,2.663,0.103,4.147,0.409c1.434,0.256,2.765,0.871,3.994,1.895l4.966-4.096
				c-1.741-1.383-3.635-2.406-5.683-2.97c-2.048-0.614-4.454-0.87-7.219-0.87c-2.151,0-4.096,0.205-5.837,0.717
				c-1.69,0.512-3.174,1.177-4.352,2.099c-1.178,0.87-2.099,1.945-2.765,3.174c-0.614,1.229-0.922,2.56-0.922,4.045
				c0,2.868,0.922,5.018,2.816,6.554c0.922,0.717,1.997,1.28,3.226,1.741c1.229,0.46,2.714,0.819,4.506,1.024l4.762,0.614
				c1.024,0.102,1.792,0.256,2.253,0.409c0.512,0.154,0.922,0.41,1.331,0.717c0.87,0.666,1.28,1.587,1.28,2.714
				c0,1.382-0.614,2.406-1.792,3.123c-1.229,0.717-2.97,1.075-5.325,1.075c-1.843,0-3.584-0.205-5.222-0.614
				c-1.638-0.409-3.124-1.177-4.352-2.202l-5.069,4.199c1.946,1.639,4.096,2.765,6.451,3.43c2.406,0.615,5.069,0.973,8.141,0.973
				c2.048,0,3.994-0.256,5.837-0.717c1.792-0.409,3.379-1.075,4.71-1.945c1.331-0.871,2.355-1.895,3.072-3.124
				c0.768-1.28,1.126-2.714,1.126-4.301C280.013,387.329,279.808,385.997,279.296,384.819z"/>
		</g>
		<g>
			<path style="fill:#C3B49A;" d="M401.357,247.911v-6.144h-28.058v35.482h28.058v-6.196h-19.712v-8.602h16.793v-6.195h-16.793
				v-8.346H401.357z"/>
		</g>
		<g>
			<path style="fill:#C3B49A;" d="M143.667,241.767l-6.144,21.606l-7.168-21.606h-5.734l-7.168,21.606l-6.093-21.606h-7.987
				l10.496,34.253h6.4l7.219-20.787l7.219,20.787h6.4l10.547-34.253H143.667z"/>
		</g>
		<g>
			<g>
				<path style="fill:#E9E8E8;" d="M284.412,285.811l-126.258,73.426c-7.111,4.135-9.543,1.703-5.408-5.408l73.43-126.254
					L284.412,285.811z"/>
				<path style="fill:#B02441;" d="M296.206,266.549l63.048-108.412c4.135-7.111,1.703-9.543-5.408-5.408l-108.408,63.051
					l-17.845,10.379c-15.899,15.899-15.755,41.828,0.324,57.908c16.083,16.083,42.012,16.227,57.911,0.328L296.206,266.549z"/>
			</g>
			<path style="opacity:0.5;fill:#040000;" d="M261.587,264.589c-3.917,3.917-10.269,3.917-14.186,0
				c-0.035-0.035-0.07-0.07-0.102-0.109c-0.208-0.208-0.402-0.43-0.589-0.652c-0.003-0.01-0.007-0.014-0.014-0.021
				c-3.201-3.941-2.965-9.741,0.702-13.407c0.709-0.709,1.491-1.287,2.33-1.738c0.832-0.451,1.713-0.776,2.619-0.969
				c3.229-0.705,6.734,0.197,9.243,2.707C265.508,254.316,265.508,260.669,261.587,264.589z"/>
		</g>
		<path style="opacity:0.07;fill:#040000;" d="M358.966,157.849l-108.408,63.051l-17.845,10.379
			c-0.478,0.478-0.895,0.993-1.344,1.488l-0.073-0.072l-0.25,0.43c-3.623,4.094-6.27,8.739-7.947,13.664l-65.233,112.16
			c-4.135,7.111-1.703,9.544,5.408,5.408l112.161-65.229c4.926-1.677,9.572-4.325,13.668-7.948l0.428-0.249l-0.072-0.072
			c0.496-0.449,1.01-0.866,1.488-1.344l10.379-17.846l63.048-108.412C368.509,156.147,366.077,153.714,358.966,157.849z"/>
	</g>
	<path style="opacity:0.07;fill:#040000;" d="M391.731,161.639c-11.264-16.128-25.242-30.157-41.37-41.37
		C323.635,101.632,291.072,90.676,256,90.676v330.598c91.29,0,165.273-73.984,165.273-165.274
		C421.274,220.929,410.368,188.365,391.731,161.639z"/>
</g>
</svg>
